# xmcd
#
# Track frame offsets:
#	150
#	21875
#	38983
#	55723
#	74610
#	92638
#	112058
#	127545
#	140933
#	158625
#
# Disc length: 2466 seconds
#
# Revision: 3
# Processed by: cddbd v1.5.1PL0 Copyright (c) Steve Scherf et al.
# Submitted via: CDmax 2.0
#
DISCID=8709a00a
DTITLE=R. L. Burnside - Too Bad Jim
DYEAR=1994
DGENRE=Blues
TTITLE0=Shake 'Em On Down
TTITLE1=When My First Wife Left Me
TTITLE2=Short-Haired Woman
TTITLE3=Old Black Mattie
TTITLE4=Fireman Ring The Bell
TTITLE5=Peaches
TTITLE6=Miss Glory B.
TTITLE7=44 Pistol
TTITLE8=Death Bell Blues
TTITLE9=Goin' Down South
EXTD=
EXTT0=
EXTT1=
EXTT2=
EXTT3=
EXTT4=
EXTT5=
EXTT6=
EXTT7=
EXTT8=
EXTT9=
PLAYORDER=
